<svg width="289" height="85" viewBox="0 0 289 85" fill="none" xmlns="http://www.w3.org/2000/svg">
<path d="M20.7953 26.9863H62.3853C67.5841 26.9863 71.9164 32.1851 72.7828 37.3838L77.9816 68.5763C78.8485 73.7778 72.7828 78.9738 67.5841 78.9738H15.5966C10.3979 78.9738 4.33219 73.7778 5.1991 68.5763L10.3979 37.3838C11.2643 32.1851 15.5966 26.9863 20.7953 26.9863Z" stroke="black" stroke-width="4.43626" stroke-linecap="round" stroke-linejoin="round"/>
<path d="M25.9939 37.3442V21.6875" stroke="black" stroke-width="4.43626" stroke-linecap="round" stroke-linejoin="round"/>
<path d="M57.1868 21.7891V37.3853" stroke="black" stroke-width="4.43626" stroke-linecap="round" stroke-linejoin="round"/>
<path d="M57.1864 21.7818C57.1864 16.583 54.1649 11.0422 49.3581 8.26695C44.5513 5.49174 38.629 5.49175 33.8222 8.26695C29.0154 11.0422 25.9939 16.583 25.9939 21.7818" stroke="black" stroke-width="4.43626" stroke-linecap="round" stroke-linejoin="round"/>
<path d="M27.8729 62.6621V44.0298H39.904V46.7714H31.2799V51.9885H38.2537V54.6768H31.2799V62.6621H27.8729ZM48.8949 62.9815C47.5286 62.9815 46.3219 62.7508 45.2749 62.2895C44.228 61.8103 43.4028 61.136 42.7995 60.2665C42.1962 59.3793 41.8856 58.3057 41.8679 57.0458H45.4613C45.4967 57.9153 45.8073 58.6517 46.3929 59.2551C46.9962 59.8406 47.8213 60.1334 48.8683 60.1334C49.7733 60.1334 50.492 59.9205 51.0243 59.4946C51.5567 59.051 51.8229 58.4654 51.8229 57.7379C51.8229 56.9748 51.5833 56.3804 51.1042 55.9545C50.6428 55.5286 50.0217 55.1826 49.2409 54.9164C48.4602 54.6502 47.6261 54.3663 46.7389 54.0646C45.3015 53.5678 44.2014 52.929 43.4383 52.1482C42.693 51.3674 42.3204 50.3293 42.3204 49.0339C42.3026 47.9337 42.5599 46.9932 43.0923 46.2124C43.6424 45.4139 44.3877 44.8017 45.3282 44.3758C46.2687 43.9322 47.3511 43.7104 48.5755 43.7104C49.8177 43.7104 50.909 43.9322 51.8495 44.3758C52.8077 44.8195 53.553 45.4405 54.0853 46.2391C54.6354 47.0376 54.9282 47.987 54.9637 49.0871H51.3171C51.2994 48.4306 51.0421 47.8539 50.5452 47.357C50.0661 46.8424 49.3918 46.5851 48.5223 46.5851C47.777 46.5674 47.147 46.7537 46.6324 47.1441C46.1356 47.5167 45.8871 48.0668 45.8871 48.7944C45.8871 49.4154 46.0823 49.9123 46.4727 50.2849C46.8631 50.6398 47.3955 50.9415 48.0698 51.1899C48.7441 51.4384 49.516 51.7045 50.3855 51.9885C51.3082 52.3079 52.1511 52.6805 52.9142 53.1064C53.6772 53.5323 54.2894 54.1001 54.7508 54.8099C55.2122 55.502 55.4428 56.3981 55.4428 57.4983C55.4428 58.4743 55.1944 59.3793 54.6976 60.2133C54.2007 61.0473 53.4643 61.7216 52.4883 62.2362C51.5123 62.7331 50.3145 62.9815 48.8949 62.9815Z" fill="black"/>
<path d="M99.2952 57.0273V28.7146H117.577V32.8806H104.472V40.8082H115.069V44.8933H104.472V57.0273H99.2952ZM124.242 33.8513C123.298 33.8513 122.516 33.5682 121.896 33.002C121.303 32.4357 121.006 31.7212 121.006 30.8583C121.006 29.9954 121.303 29.2943 121.896 28.7551C122.516 28.1888 123.298 27.9057 124.242 27.9057C125.186 27.9057 125.954 28.1888 126.547 28.7551C127.168 29.2943 127.478 29.9954 127.478 30.8583C127.478 31.7212 127.168 32.4357 126.547 33.002C125.954 33.5682 125.186 33.8513 124.242 33.8513ZM121.653 57.0273V36.9657H126.831V57.0273H121.653ZM132.234 57.0273V36.9657H136.845L137.331 40.7273C138.059 39.433 139.043 38.4083 140.283 37.6533C141.551 36.8714 143.034 36.4804 144.732 36.4804V41.9407H143.276C142.144 41.9407 141.133 42.116 140.243 42.4665C139.353 42.817 138.652 43.4237 138.14 44.2866C137.654 45.1495 137.412 46.3494 137.412 47.8864V57.0273H132.234ZM156.562 57.5127C154.783 57.5127 153.219 57.2296 151.871 56.6633C150.522 56.0701 149.444 55.2612 148.635 54.2365C147.826 53.2119 147.341 52.0254 147.179 50.6772H152.396C152.558 51.4592 152.99 52.1333 153.691 52.6995C154.419 53.2388 155.349 53.5085 156.482 53.5085C157.614 53.5085 158.436 53.2793 158.949 52.8209C159.488 52.3625 159.758 51.8367 159.758 51.2435C159.758 50.3806 159.38 49.8009 158.625 49.5042C157.87 49.1807 156.819 48.8706 155.47 48.574C154.607 48.3852 153.731 48.156 152.841 47.8864C151.951 47.6167 151.129 47.2797 150.374 46.8752C149.646 46.4438 149.053 45.9045 148.594 45.2573C148.136 44.5832 147.907 43.7608 147.907 42.7901C147.907 41.0104 148.608 39.5139 150.01 38.3005C151.439 37.0871 153.435 36.4804 155.996 36.4804C158.369 36.4804 160.257 37.0332 161.659 38.1387C163.088 39.2442 163.937 40.7677 164.207 42.7092H159.313C159.016 41.2261 157.897 40.4846 155.956 40.4846C154.985 40.4846 154.23 40.6734 153.691 41.0509C153.178 41.4284 152.922 41.9003 152.922 42.4665C152.922 43.0597 153.313 43.5316 154.095 43.8821C154.877 44.2327 155.915 44.5563 157.21 44.8529C158.612 45.1764 159.893 45.5405 161.052 45.9449C162.238 46.3224 163.182 46.9022 163.883 47.6841C164.584 48.4391 164.935 49.5312 164.935 50.9603C164.962 52.2007 164.638 53.3197 163.964 54.3174C163.29 55.3151 162.319 56.0971 161.052 56.6633C159.785 57.2296 158.288 57.5127 156.562 57.5127ZM177.828 57.0273C175.725 57.0273 174.039 56.515 172.772 55.4904C171.505 54.4657 170.871 52.6456 170.871 50.0301V41.2936H167.433V36.9657H170.871L171.478 31.5863H176.048V36.9657H181.468V41.2936H176.048V50.0705C176.048 51.0412 176.251 51.7153 176.655 52.0928C177.086 52.4434 177.814 52.6186 178.839 52.6186H181.347V57.0273H177.828ZM195.701 57.5127C193.625 57.5127 191.791 57.1622 190.201 56.4611C188.61 55.733 187.356 54.7084 186.439 53.3871C185.522 52.0389 185.05 50.4076 185.023 48.4931H190.484C190.538 49.8143 191.009 50.9334 191.899 51.8502C192.816 52.74 194.07 53.1849 195.661 53.1849C197.036 53.1849 198.128 52.8613 198.937 52.2142C199.746 51.5401 200.15 50.6502 200.15 49.5447C200.15 48.3852 199.786 47.4819 199.058 46.8348C198.357 46.1876 197.414 45.6618 196.227 45.2573C195.041 44.8529 193.773 44.4214 192.425 43.963C190.241 43.208 188.569 42.2373 187.41 41.0509C186.277 39.8644 185.711 38.287 185.711 36.3186C185.684 34.6468 186.075 33.2177 186.884 32.0312C187.72 30.8178 188.852 29.8876 190.281 29.2404C191.711 28.5663 193.355 28.2292 195.216 28.2292C197.103 28.2292 198.762 28.5663 200.191 29.2404C201.647 29.9145 202.779 30.8583 203.588 32.0717C204.424 33.2851 204.869 34.7277 204.923 36.3995H199.382C199.355 35.4018 198.964 34.5255 198.209 33.7705C197.481 32.9885 196.456 32.5975 195.135 32.5975C194.003 32.5705 193.045 32.8537 192.263 33.4469C191.508 34.0131 191.131 34.849 191.131 35.9546C191.131 36.8983 191.427 37.6533 192.021 38.2196C192.614 38.7589 193.423 39.2173 194.447 39.5948C195.472 39.9723 196.645 40.3768 197.966 40.8082C199.368 41.2936 200.649 41.8598 201.809 42.507C202.968 43.1541 203.899 44.017 204.6 45.0955C205.301 46.1472 205.651 47.5089 205.651 49.1807C205.651 50.6637 205.274 52.0389 204.519 53.3062C203.764 54.5736 202.645 55.5982 201.162 56.3802C199.679 57.1352 197.858 57.5127 195.701 57.5127ZM218.986 57.0273C216.882 57.0273 215.197 56.515 213.93 55.4904C212.663 54.4657 212.029 52.6456 212.029 50.0301V41.2936H208.591V36.9657H212.029L212.636 31.5863H217.206V36.9657H222.626V41.2936H217.206V50.0705C217.206 51.0412 217.408 51.7153 217.813 52.0928C218.244 52.4434 218.972 52.6186 219.997 52.6186H222.505V57.0273H218.986ZM236.184 57.5127C234.242 57.5127 232.49 57.0678 230.926 56.178C229.389 55.2881 228.162 54.0612 227.245 52.4973C226.355 50.9064 225.91 49.0728 225.91 46.9965C225.91 44.9203 226.369 43.1002 227.285 41.5362C228.202 39.9453 229.429 38.705 230.966 37.8151C232.53 36.9253 234.283 36.4804 236.224 36.4804C238.139 36.4804 239.864 36.9253 241.401 37.8151C242.965 38.705 244.192 39.9453 245.082 41.5362C245.999 43.1002 246.457 44.9203 246.457 46.9965C246.457 49.0728 245.999 50.9064 245.082 52.4973C244.192 54.0612 242.965 55.2881 241.401 56.178C239.837 57.0678 238.098 57.5127 236.184 57.5127ZM236.184 53.0231C237.532 53.0231 238.705 52.5243 239.703 51.5266C240.7 50.5019 241.199 48.9919 241.199 46.9965C241.199 45.0012 240.7 43.5046 239.703 42.507C238.705 41.4823 237.545 40.97 236.224 40.97C234.849 40.97 233.663 41.4823 232.665 42.507C231.694 43.5046 231.209 45.0012 231.209 46.9965C231.209 48.9919 231.694 50.5019 232.665 51.5266C233.663 52.5243 234.836 53.0231 236.184 53.0231ZM251.086 57.0273V36.9657H255.697L256.182 40.7273C256.911 39.433 257.895 38.4083 259.135 37.6533C260.402 36.8714 261.885 36.4804 263.584 36.4804V41.9407H262.128C260.996 41.9407 259.984 42.116 259.095 42.4665C258.205 42.817 257.504 43.4237 256.991 44.2866C256.506 45.1495 256.263 46.3494 256.263 47.8864V57.0273H251.086ZM276.515 57.5127C274.493 57.5127 272.699 57.0813 271.135 56.2184C269.572 55.3555 268.345 54.1421 267.455 52.5782C266.565 51.0143 266.12 49.2076 266.12 47.1583C266.12 45.0821 266.551 43.235 267.414 41.6171C268.304 39.9993 269.518 38.7454 271.055 37.8556C272.619 36.9388 274.452 36.4804 276.555 36.4804C278.524 36.4804 280.263 36.9118 281.773 37.7747C283.283 38.6375 284.456 39.824 285.292 41.334C286.155 42.817 286.586 44.4754 286.586 46.309C286.586 46.6056 286.573 46.9157 286.546 47.2392C286.546 47.5628 286.532 47.8999 286.505 48.2504H271.257C271.365 49.8143 271.904 51.0412 272.875 51.9311C273.872 52.8209 275.072 53.2658 276.474 53.2658C277.526 53.2658 278.402 53.0366 279.103 52.5782C279.832 52.0928 280.371 51.4727 280.721 50.7176H285.979C285.602 51.985 284.968 53.1445 284.078 54.1961C283.216 55.2207 282.137 56.0297 280.843 56.6229C279.575 57.2161 278.133 57.5127 276.515 57.5127ZM276.555 40.6869C275.288 40.6869 274.169 41.0509 273.198 41.7789C272.228 42.48 271.607 43.5586 271.338 45.0147H281.328C281.247 43.6934 280.762 42.6418 279.872 41.8598C278.982 41.0778 277.877 40.6869 276.555 40.6869Z" fill="black"/>
</svg>
