<svg width="15" height="15" viewBox="0 0 15 15" fill="none" xmlns="http://www.w3.org/2000/svg">
<path d="M5.35714 0H1.07143C0.787268 0 0.514746 0.112882 0.313814 0.313814C0.112882 0.514746 0 0.787268 0 1.07143V5.35714C0 5.6413 0.112882 5.91383 0.313814 6.11476C0.514746 6.31569 0.787268 6.42857 1.07143 6.42857H5.35714C5.6413 6.42857 5.91383 6.31569 6.11476 6.11476C6.31569 5.91383 6.42857 5.6413 6.42857 5.35714V1.07143C6.42857 0.787268 6.31569 0.514746 6.11476 0.313814C5.91383 0.112882 5.6413 0 5.35714 0ZM5.71429 5.35714C5.71429 5.45186 5.67666 5.5427 5.60968 5.60968C5.5427 5.67666 5.45186 5.71429 5.35714 5.71429H1.07143C0.976708 5.71429 0.885868 5.67666 0.818891 5.60968C0.751913 5.5427 0.714286 5.45186 0.714286 5.35714V1.07143C0.714286 0.976708 0.751913 0.885868 0.818891 0.818891C0.885868 0.751913 0.976708 0.714286 1.07143 0.714286H5.35714C5.45186 0.714286 5.5427 0.751913 5.60968 0.818891C5.67666 0.885868 5.71429 0.976708 5.71429 1.07143V5.35714ZM13.9286 0H9.64286C9.3587 0 9.08617 0.112882 8.88524 0.313814C8.68431 0.514746 8.57143 0.787268 8.57143 1.07143V5.35714C8.57143 5.6413 8.68431 5.91383 8.88524 6.11476C9.08617 6.31569 9.3587 6.42857 9.64286 6.42857H13.9286C14.2127 6.42857 14.4853 6.31569 14.6862 6.11476C14.8871 5.91383 15 5.6413 15 5.35714V1.07143C15 0.787268 14.8871 0.514746 14.6862 0.313814C14.4853 0.112882 14.2127 0 13.9286 0ZM14.2857 5.35714C14.2857 5.45186 14.2481 5.5427 14.1811 5.60968C14.1141 5.67666 14.0233 5.71429 13.9286 5.71429H9.64286C9.54814 5.71429 9.4573 5.67666 9.39032 5.60968C9.32334 5.5427 9.28571 5.45186 9.28571 5.35714V1.07143C9.28571 0.976708 9.32334 0.885868 9.39032 0.818891C9.4573 0.751913 9.54814 0.714286 9.64286 0.714286H13.9286C14.0233 0.714286 14.1141 0.751913 14.1811 0.818891C14.2481 0.885868 14.2857 0.976708 14.2857 1.07143V5.35714ZM5.35714 8.57143H1.07143C0.787268 8.57143 0.514746 8.68431 0.313814 8.88524C0.112882 9.08617 0 9.3587 0 9.64286V13.9286C0 14.2127 0.112882 14.4853 0.313814 14.6862C0.514746 14.8871 0.787268 15 1.07143 15H5.35714C5.6413 15 5.91383 14.8871 6.11476 14.6862C6.31569 14.4853 6.42857 14.2127 6.42857 13.9286V9.64286C6.42857 9.3587 6.31569 9.08617 6.11476 8.88524C5.91383 8.68431 5.6413 8.57143 5.35714 8.57143ZM5.71429 13.9286C5.71429 14.0233 5.67666 14.1141 5.60968 14.1811C5.5427 14.2481 5.45186 14.2857 5.35714 14.2857H1.07143C0.976708 14.2857 0.885868 14.2481 0.818891 14.1811C0.751913 14.1141 0.714286 14.0233 0.714286 13.9286V9.64286C0.714286 9.54814 0.751913 9.4573 0.818891 9.39032C0.885868 9.32334 0.976708 9.28571 1.07143 9.28571H5.35714C5.45186 9.28571 5.5427 9.32334 5.60968 9.39032C5.67666 9.4573 5.71429 9.54814 5.71429 9.64286V13.9286ZM13.9286 8.57143H9.64286C9.3587 8.57143 9.08617 8.68431 8.88524 8.88524C8.68431 9.08617 8.57143 9.3587 8.57143 9.64286V13.9286C8.57143 14.2127 8.68431 14.4853 8.88524 14.6862C9.08617 14.8871 9.3587 15 9.64286 15H13.9286C14.2127 15 14.4853 14.8871 14.6862 14.6862C14.8871 14.4853 15 14.2127 15 13.9286V9.64286C15 9.3587 14.8871 9.08617 14.6862 8.88524C14.4853 8.68431 14.2127 8.57143 13.9286 8.57143ZM14.2857 13.9286C14.2857 14.0233 14.2481 14.1141 14.1811 14.1811C14.1141 14.2481 14.0233 14.2857 13.9286 14.2857H9.64286C9.54814 14.2857 9.4573 14.2481 9.39032 14.1811C9.32334 14.1141 9.28571 14.0233 9.28571 13.9286V9.64286C9.28571 9.54814 9.32334 9.4573 9.39032 9.39032C9.4573 9.32334 9.54814 9.28571 9.64286 9.28571H13.9286C14.0233 9.28571 14.1141 9.32334 14.1811 9.39032C14.2481 9.4573 14.2857 9.54814 14.2857 9.64286V13.9286Z" fill="black" fill-opacity="0.8"/>
</svg>
